<svg xmlns="http://www.w3.org/2000/svg" width="600" height="157" fill="none" viewBox="0 0 600 157"><g clip-path="url(#a)"><path fill="#a688fb" d="m27.394 123.182 27.583-82.757h-12.9a10.15 10.15 0 0 0-9.624 6.938L.53 143.145c-2.188 6.571 2.702 13.355 9.625 13.355h55.997c4.368 0 8.245-2.797 9.625-6.938l4.339-13.025H37.019c-6.923 0-11.813-6.784-9.625-13.355"/><path fill="#472fdb" d="M82.23 20.463H68.95a10.15 10.15 0 0 0-9.626 6.938l-4.339 13.024h20.594zm-2.114 116.075h12.9c4.368 0 8.245-2.797 9.625-6.938l4.339-13.025H86.768z"/><path fill="#6049e4" d="M64.272 116.575c-6.923 0-11.813-6.784-9.625-13.355l20.932-62.795H54.985L27.4 123.182c-2.188 6.571 2.702 13.355 9.625 13.355h43.097l6.652-19.962z"/><path fill="#b5fd8c" d="M152.191.5H96.195a10.15 10.15 0 0 0-9.625 6.938l-4.34 13.025h42.708c6.924 0 11.813 6.784 9.625 13.354l-27.583 82.758h13.281c4.369 0 8.245-2.797 9.626-6.938l31.929-95.782C164.004 7.284 159.115.5 152.191.5"/><path fill="#71a8fc" d="M124.945 20.463H82.238l-6.652 19.962h22.503c6.923 0 11.813 6.784 9.625 13.355l-20.932 62.795h20.212l27.584-82.757c2.188-6.571-2.702-13.355-9.625-13.355z"/><path fill="#676bf0" d="M64.272 116.575h22.503l20.932-62.795c2.188-6.571-2.702-13.355-9.625-13.355H75.579L54.647 103.22c-2.188 6.571 2.702 13.355 9.625 13.355"/><path fill="#000" stroke="#000" stroke-miterlimit="10" stroke-width=".734" d="M212.071 61.732v5.33a.964.964 0 0 1-.947.947h-15.631v47.619c0 .514-.367.948-.947.948h-5.918V68.009h-16.357v-5.33c0-.514.44-.947.947-.947zm20.879 18.326v5.256c0 .44-.367.8-.8.8h-9.126c-1.975 0-3.362 1.535-3.509 3.29v27.165h-5.551c-.44 0-.8-.367-.8-.801v-35.71h5.551c.44 0 .8.293.8.734V82.4c.873-1.241 2.702-2.335 4.963-2.335h8.472zm33.598 10.226v23.957a2.304 2.304 0 0 1-2.335 2.334h-17.092c-5.917 0-10.66-4.75-10.66-10.66v-2.261c0-5.918 4.75-10.66 10.66-10.66h12.342c.441 0 .8-.368.8-.801v-1.828c0-2.335-1.534-4.31-4.383-4.31h-14.529a.807.807 0 0 1-.801-.8v-5.183h15.338c5.917 0 10.66 3.575 10.66 10.227zm-19.427 20.08h12.415c.441 0 .727-.367.727-.8V97.949c-.367.66-1.094 1.02-1.901 1.094h-11.248a4.275 4.275 0 0 0-4.31 4.31v2.701a4.274 4.274 0 0 0 4.31 4.31zm59.153-19.639v25.85h-5.55a.806.806 0 0 1-.8-.8V90.358c0-2.335-1.902-4.31-4.31-4.31h-13.215a.807.807 0 0 0-.801.8v28.92c0 .44-.367.8-.8.8h-5.55V84.8a4.737 4.737 0 0 1 4.742-4.75h15.631c5.918 0 10.661 4.75 10.661 10.66zm7.967 3.869v-4.89c0-5.917 4.089-9.64 10.007-9.64h20.014v5.184c0 .44-.367.8-.801.8h-19.206c-2.408 0-3.649 1.167-3.649 3.576v2.114c0 .367.294.66.661.8l22.569 5.33a2.43 2.43 0 0 1 1.975 2.409v6.497c0 6.351-4.53 9.787-10.44 9.787h-20.668v-5.183c0-.441.367-.801.801-.801h19.867c2.408 0 4.53-1.387 4.53-3.795v-3.436c0-.368-.294-.654-.661-.727l-22.929-5.624c-1.167-.22-2.048-1.241-2.048-2.408zm60.393 21.982h-8.399c-2.262 0-4.09-1.168-4.963-2.335v19.353c0 .441-.367.8-.801.8h-5.55V82.326c0-1.241 1.02-2.261 2.335-2.261h17.378c5.844 0 10.66 3.068 10.66 10.3v15.925c0 6.137-4.823 10.3-10.66 10.3zm4.31-26.218c0-3.363-1.975-4.31-4.31-4.31h-12.562c-.441 0-.8.367-.8.8v19.941c.146 1.901 1.607 3.502 3.502 3.722h9.86c2.335 0 4.31-1.901 4.31-4.309V90.35zm43.817-.074v23.957a2.303 2.303 0 0 1-2.334 2.334h-17.092a10.627 10.627 0 0 1-10.661-10.66v-2.261c0-5.918 4.75-10.66 10.661-10.66h12.341a.807.807 0 0 0 .801-.801v-1.828c0-2.335-1.535-4.31-4.383-4.31h-14.53a.806.806 0 0 1-.8-.8v-5.183h15.337c5.917 0 10.66 3.575 10.66 10.227zm-19.426 20.08h12.415c.44 0 .727-.367.727-.8V97.949c-.367.66-1.094 1.02-1.902 1.094h-11.248a4.274 4.274 0 0 0-4.309 4.31v2.701a4.274 4.274 0 0 0 4.309 4.31zm47.905-30.306v5.256c0 .44-.367.8-.8.8h-9.126c-1.975 0-3.362 1.535-3.509 3.29v27.165h-5.551c-.44 0-.8-.367-.8-.801v-35.71h5.551c.44 0 .8.293.8.734V82.4c.874-1.241 2.702-2.335 4.963-2.335h8.472zm6.056 25.857V90.431c0-6.791 4.743-10.367 10.66-10.367h9.787c5.918 0 10.66 3.576 10.66 10.367v8.4c0 1.24-.146 2.261-1.901 2.261h-20.007c-1.167 0-2.188-.514-2.848-1.388v6.498a4.273 4.273 0 0 0 4.309 4.309h18.113c.44 0 .8.367.8.8v5.257h-18.913c-5.917 0-10.66-4.75-10.66-10.66zm10.668-19.867c-2.408 0-4.31 1.388-4.31 4.31V94.3c0 .44.294.727.734.8h17.019c.44 0 .8-.366.8-.8v-3.942c0-2.922-1.388-4.31-4.236-4.31zm60.395 4.677v25.85h-5.551c-.44 0-.8-.367-.8-.8V90.358c0-2.335-1.901-4.31-4.31-4.31h-13.215c-.441 0-.8.367-.8.8v28.92c0 .44-.367.8-.801.8h-5.55V84.8a4.737 4.737 0 0 1 4.743-4.75h15.631c5.917 0 10.66 4.75 10.66 10.66zm14.75-.22v15.704a4.275 4.275 0 0 0 4.31 4.31h12.929c.441 0 .8.367.8.8v5.257h-13.729c-5.844 0-10.66-4.75-10.66-10.66V90.799c0-5.918 4.816-10.66 10.66-10.66h13.729v5.256c0 .44-.367.734-.8.734h-12.929c-2.408 0-4.31 1.975-4.31 4.383zm55.725-10.447c.441 0 .8.293.8.734v42.942c0 5.918-4.816 10.661-10.66 10.661h-17.966v-5.257c0-.44.368-.8.801-.8h17.165c2.335 0 4.31-1.975 4.31-4.31v-9.787c-.947 1.168-2.702 2.335-5.037 2.335h-8.252c-5.918 0-10.661-4.824-10.661-10.66V80.065h5.551c.44 0 .8.294.8.734v25.418c0 2.334 1.902 4.309 4.31 4.309h9.713c1.902-.293 3.436-1.828 3.583-3.722V80.072h5.55z"/></g><defs><clipPath id="a"><path fill="#fff" d="M0 .5h600v156H0z"/></clipPath></defs></svg>