<svg width="367" height="399" viewBox="0 0 367 399" fill="none" xmlns="http://www.w3.org/2000/svg">
<g clip-path="url(#clip0_54_103)">
<path d="M257.405 384.22C257.115 384.36 256.905 384.28 256.755 383.96L246.905 362.96C246.775 362.67 246.845 362.46 247.135 362.32L249.185 361.36C249.475 361.22 249.685 361.3 249.825 361.59L254.235 370.99L266.005 365.47L261.595 356.07C261.455 355.78 261.535 355.57 261.825 355.43L263.875 354.47C264.165 354.33 264.375 354.41 264.515 354.7L274.365 375.7C274.515 376.02 274.435 376.23 274.145 376.37L272.095 377.33C271.805 377.47 271.595 377.39 271.445 377.07L267.215 368.04L255.445 373.56L259.675 382.59C259.825 382.91 259.745 383.12 259.455 383.26L257.405 384.22Z" fill="#00D000"/>
<path d="M225.055 394.12C224.745 394.2 224.555 394.09 224.475 393.78L221.545 382.49C220.285 377.63 219.975 374.81 220.945 372.57C221.915 370.34 223.885 369.26 227.685 368.27C230.745 367.47 232.715 367.42 234.455 368.03C235.325 368.33 236.065 368.9 236.715 369.75C237.945 371.44 238.915 373.77 239.935 377.7L242.875 388.99C242.955 389.3 242.835 389.49 242.535 389.57L240.335 390.14C240.025 390.22 239.835 390.11 239.755 389.8L236.825 378.51C236.175 376 235.505 374.2 234.835 373.02C233.475 370.7 231.715 370.17 228.405 371.03C225.965 371.66 224.505 372.67 224.015 374.09C223.495 375.51 223.725 378.06 224.665 381.68L227.605 392.97C227.685 393.28 227.565 393.47 227.265 393.55L225.065 394.12H225.055Z" fill="#00D000"/>
<path d="M186.425 398.13C186.135 398.15 185.965 398 185.915 397.68L182.565 374.6C182.515 374.28 182.665 374.11 183.015 374.1L185.315 373.97C185.605 373.95 185.775 374.1 185.815 374.42L188.275 392.46L194.205 374.66C194.285 374.4 194.475 374.26 194.755 374.25L197.025 374.13C197.315 374.11 197.545 374.23 197.655 374.48L205.505 391.52L205.975 373.32C205.985 373 206.135 372.83 206.425 372.82L208.685 372.7C209.035 372.68 209.205 372.83 209.195 373.15L208.425 396.43C208.415 396.78 208.265 396.95 207.975 396.97L205.485 397.11C204.755 397.15 204.545 396.9 204.105 395.94L196.125 378.2L190.135 396.71C189.805 397.72 189.625 397.99 188.895 398.03L186.405 398.17L186.425 398.13Z" fill="#00D000"/>
<path d="M158.365 395.19C157.915 394.71 157.575 393.63 157.365 391.92L154.675 371.26C154.635 370.84 154.745 370.75 155.125 370.81L157.595 371.15C157.845 371.18 157.895 371.29 157.935 371.71L158.945 378.98L168.475 380.28L171.425 373.56C171.575 373.16 171.655 373.08 171.905 373.11L174.375 373.45C174.755 373.5 174.835 373.61 174.685 374.01L166.355 393.16C165.655 394.71 165.045 395.69 164.505 396.04C163.945 396.38 162.935 396.47 161.445 396.27C159.825 396.05 158.785 395.68 158.365 395.2V395.19ZM163.415 391.98L167.295 382.96L159.285 381.86L160.475 391.57C160.595 392.36 160.715 392.86 160.855 393.04C160.985 393.25 161.295 393.39 161.825 393.46C162.715 393.58 162.825 393.44 163.415 391.97V391.98Z" fill="#00D000"/>
<path d="M120.705 385.97C120.405 385.87 120.295 385.67 120.405 385.34L127.555 363.26C127.655 362.96 127.855 362.85 128.155 362.95L130.015 363.55C130.475 363.7 130.775 364 130.905 364.44L137.065 386.42L142.945 368.23C143.045 367.93 143.245 367.82 143.545 367.92L145.705 368.62C146.005 368.72 146.115 368.92 146.015 369.22L138.865 391.3C138.755 391.63 138.555 391.74 138.255 391.64L136.185 390.97C135.135 390.59 134.985 390.41 134.735 389.53L129.025 369.17L123.475 386.32C123.365 386.65 123.165 386.76 122.865 386.66L120.705 385.96V385.97Z" fill="#00D000"/>
<path d="M104.825 378.81C104.535 378.67 104.465 378.46 104.615 378.14L114.725 357.26C114.865 356.97 115.075 356.9 115.365 357.04L117.405 358.03C117.695 358.17 117.765 358.38 117.625 358.67L107.515 379.55C107.365 379.87 107.145 379.94 106.865 379.8L104.825 378.81Z" fill="#00D000"/>
<path d="M78.245 363.11C77.975 362.94 77.935 362.71 78.105 362.45L78.975 361.11C79.075 360.95 79.235 360.82 79.495 360.72L101.515 352.77L89.675 345.07C89.385 344.88 89.335 344.66 89.505 344.39L90.535 342.81C90.705 342.54 90.935 342.49 91.225 342.69L106.205 352.43C106.475 352.6 106.525 352.83 106.345 353.09L105.515 354.42C105.395 354.61 105.235 354.73 104.995 354.81L82.935 362.77L94.245 370.12C94.535 370.31 94.585 370.53 94.425 370.77L93.405 372.39C93.235 372.66 93.005 372.71 92.715 372.51L78.245 363.1V363.11Z" fill="#00D000"/>
<path d="M65.895 353.15C65.655 352.94 65.635 352.72 65.855 352.45L80.835 334.74C81.045 334.5 81.2649 334.48 81.5149 334.68L83.245 336.14C83.485 336.35 83.505 336.57 83.305 336.82L68.325 354.53C68.095 354.8 67.875 354.82 67.625 354.61L65.895 353.15Z" fill="#00D000"/>
<path d="M42.335 329.33C42.125 329.09 42.135 328.87 42.395 328.63L59.645 313.11C59.885 312.9 60.105 312.91 60.325 313.15L61.625 314.6C61.945 314.96 62.055 315.37 61.945 315.82L56.255 337.92L70.465 325.14C70.705 324.93 70.925 324.94 71.145 325.18L72.665 326.87C72.875 327.11 72.865 327.33 72.625 327.55L55.375 343.07C55.115 343.31 54.885 343.29 54.675 343.06L53.225 341.44C52.505 340.59 52.465 340.36 52.695 339.47L57.965 319L44.565 331.06C44.305 331.3 44.075 331.28 43.865 331.05L42.345 329.36L42.335 329.33Z" fill="#00D000"/>
<path d="M25.345 304.17C25.185 303.85 25.265 303.62 25.535 303.45L26.805 302.65C27.075 302.48 27.295 302.53 27.465 302.8L30.735 308.03C32.225 310.41 33.415 311.48 35.275 311.49C37.095 311.45 38.915 310.57 42.195 308.52C45.365 306.54 47.285 304.85 47.915 303.51C48.545 302.17 48.135 300.36 46.695 298.06L44.115 293.94L36.695 298.58C36.395 298.77 36.175 298.72 36.005 298.45L34.885 296.66C34.715 296.39 34.765 296.17 35.065 295.98L43.145 290.93C43.365 290.79 43.565 290.7 43.735 290.67C44.455 290.56 45.415 291.24 46.515 292.7L47.805 294.53C48.155 295.03 48.575 295.7 49.105 296.55C50.795 299.26 51.445 301.26 51.365 303.12C51.095 306 48.765 308.18 43.895 311.25C39.695 313.87 37.105 314.97 34.655 314.73C32.155 314.52 30.415 312.89 28.315 309.53C26.945 307.33 25.945 305.55 25.335 304.16L25.345 304.17Z" fill="#00D000"/>
<path d="M9.59495 259.47C10.9349 257.44 13.6949 255.77 17.8349 254.46C22.0149 253.15 25.2249 252.94 27.5149 253.82C29.7649 254.69 31.4449 256.84 32.5249 260.25C33.6449 263.82 34.4749 266.64 34.9549 268.7C35.0449 269.08 35.0049 269.19 34.6749 269.29L12.6049 276.24C12.2349 276.36 12.1449 276.28 12.0049 275.93C11.2149 273.97 10.2749 271.18 9.15494 267.61C8.07494 264.19 8.22495 261.47 9.60495 259.46L9.59495 259.47ZM13.6649 272.53L31.6249 266.88L29.8149 261.12C29.0849 258.8 27.8649 257.38 26.1949 256.86C24.4849 256.33 22.0149 256.57 18.8149 257.58C15.6449 258.58 13.5249 259.82 12.4449 261.29C11.3649 262.77 11.2149 264.73 11.9949 267.2L13.6749 272.53H13.6649Z" fill="#00D000"/>
<path d="M3.28495 242.42C3.23495 242.1 3.36495 241.92 3.70495 241.86L26.565 237.92C26.885 237.87 27.065 238 27.115 238.31L27.495 240.55C27.545 240.86 27.415 241.05 27.105 241.1L4.23495 245.04C3.88495 245.1 3.70495 244.97 3.65495 244.66L3.26495 242.42H3.28495Z" fill="#00D000"/>
<path d="M0.804971 213.09C0.824971 212.74 1.00497 212.57 1.32497 212.55L2.82497 212.48C3.14497 212.47 3.31497 212.62 3.32497 212.94L3.60497 219.1C3.73497 221.91 4.24497 223.42 5.85497 224.34C7.46497 225.2 9.48497 225.33 13.345 225.15C17.085 224.98 19.585 224.45 20.795 223.6C22.005 222.75 22.535 220.96 22.405 218.25L22.185 213.4L13.435 213.79C13.085 213.81 12.915 213.65 12.905 213.33L12.815 211.22C12.805 210.9 12.955 210.73 13.305 210.72L22.815 210.29C23.065 210.28 23.295 210.3 23.455 210.36C24.135 210.62 24.635 211.68 24.875 213.49L25.105 215.72C25.165 216.33 25.195 217.12 25.245 218.11C25.385 221.3 24.965 223.37 23.985 224.95C22.335 227.33 19.235 228.07 13.485 228.37C8.53497 228.59 5.73497 228.27 3.72497 226.86C1.64497 225.45 0.934971 223.18 0.754971 219.22C0.634971 216.63 0.644971 214.59 0.794971 213.08L0.804971 213.09Z" fill="#00D000"/>
<path d="M1.45498 195.58C1.48498 195.26 1.65498 195.11 2.00498 195.14L25.135 196.99C25.455 197.02 25.605 197.19 25.575 197.51L25.395 199.77C25.365 200.09 25.195 200.24 24.875 200.21L1.74498 198.36C1.39498 198.33 1.24498 198.16 1.27498 197.84L1.45498 195.58Z" fill="#00D000"/>
<path d="M6.325 165.6C6.38499 165.29 6.57499 165.16 6.89499 165.23L8.74499 165.61C9.05499 165.67 9.18499 165.86 9.11499 166.18L7.66499 173.29L28.115 177.47C28.425 177.53 28.555 177.72 28.485 178.04L28.025 180.26C27.965 180.57 27.775 180.7 27.455 180.63L7.00499 176.44L5.54499 183.55C5.48499 183.86 5.295 183.99 4.975 183.92L3.12499 183.54C2.81499 183.48 2.68499 183.29 2.75499 182.97L6.31499 165.59L6.325 165.6Z" fill="#00D000"/>
<path d="M12.595 147.61C13.155 147.26 14.275 147.15 15.995 147.27L36.785 148.73C37.205 148.78 37.265 148.9 37.145 149.26L36.325 151.61C36.245 151.85 36.125 151.88 35.705 151.83L28.385 151.37L25.215 160.45L31.225 164.68C31.585 164.91 31.655 165 31.575 165.24L30.755 167.59C30.625 167.95 30.505 168.01 30.145 167.78L13.025 155.82C11.645 154.83 10.805 154.03 10.575 153.44C10.355 152.82 10.465 151.81 10.965 150.39C11.505 148.85 12.075 147.9 12.625 147.58L12.595 147.61ZM14.745 153.2L22.815 158.79L25.475 151.15L15.725 150.39C14.925 150.35 14.415 150.37 14.205 150.47C13.975 150.56 13.775 150.83 13.595 151.34C13.305 152.18 13.425 152.33 14.745 153.2Z" fill="#00D000"/>
<path d="M21.115 126.95C21.265 126.67 21.485 126.6 21.765 126.76L40.135 136.66L45.645 126.45C45.795 126.17 46.015 126.1 46.295 126.26L47.955 127.15C48.235 127.3 48.305 127.52 48.145 127.8L41.335 140.43C41.185 140.71 40.965 140.78 40.685 140.62L20.225 129.59C19.945 129.44 19.875 129.22 20.025 128.94L21.105 126.94L21.115 126.95Z" fill="#00D000"/>
<path d="M52.415 84.75C54.355 84.28 56.105 85.14 58.605 87.33C61.175 89.58 62.095 91.2 61.975 93.04C61.925 93.59 61.715 94.21 61.335 94.94C60.565 96.35 59.655 97.54 57.945 99.49L55.275 102.54L61.715 108.18C62.005 108.43 62.015 108.57 61.755 108.86L60.255 110.57C60.005 110.86 59.865 110.87 59.575 110.61L42.155 95.34C41.865 95.09 41.885 94.97 42.115 94.66C43.385 92.97 44.835 91.22 46.435 89.39C48.965 86.51 50.525 85.16 52.425 84.74L52.415 84.75ZM45.895 94.33L53.205 100.73L55.685 97.89C56.255 97.24 56.715 96.71 57.005 96.33C57.635 95.56 58.385 94.56 58.545 93.99C58.995 92.6 58.475 91.5 56.505 89.82C54.895 88.41 53.585 87.82 52.565 88.07C51.565 88.29 50.165 89.45 48.375 91.49L45.895 94.33Z" fill="#00D000"/>
<path d="M74.615 64.76C76.605 64.61 78.195 65.74 80.315 68.3C81.925 70.25 82.765 71.87 82.815 73.19C82.895 74.49 82.265 75.84 80.925 77.27L90.555 80.47C90.975 80.58 91.035 80.9 90.665 81.21L89.085 82.51C88.565 82.94 88.245 82.95 87.655 82.78L78.285 79.7L74.565 82.77L80.015 89.38C80.255 89.68 80.245 89.81 79.955 90.05L78.205 91.49C77.905 91.73 77.775 91.72 77.535 91.43L62.795 73.55C62.555 73.25 62.585 73.14 62.865 72.88C64.395 71.42 66.105 69.92 67.975 68.38C70.935 65.94 72.695 64.86 74.635 64.75L74.615 64.76ZM66.625 73.16L72.805 80.66L75.715 78.26C76.385 77.71 76.925 77.26 77.275 76.93C78.015 76.28 78.925 75.41 79.175 74.87C79.845 73.57 79.505 72.41 77.835 70.43C76.475 68.78 75.275 67.98 74.225 68.06C73.195 68.12 71.635 69.04 69.535 70.76L66.625 73.16Z" fill="#00D000"/>
<path d="M112.125 65.15C111.785 67.59 110.135 69.27 106.665 71.25C103.195 73.23 100.915 73.8 98.615 72.87C96.345 71.92 94.575 69.73 92.145 65.49C89.765 61.33 88.725 58.17 89.025 56.04C89.325 53.92 91.145 51.88 94.495 49.96C97.845 48.04 100.525 47.5 102.505 48.32C104.485 49.14 106.685 51.64 109.065 55.8C111.495 60.04 112.485 62.68 112.125 65.13V65.15ZM99.755 69.79C101.065 70.48 102.895 70.13 105.255 68.78C107.615 67.43 108.835 66.03 108.915 64.55C108.995 63.07 108.095 60.67 106.245 57.43C104.325 54.07 103.155 52.42 101.525 51.55C99.945 50.65 98.365 51.04 95.925 52.44C93.485 53.84 92.375 54.99 92.295 56.84C92.265 58.66 93.075 60.52 94.995 63.88C96.855 67.13 98.465 69.11 99.775 69.8L99.755 69.79Z" fill="#00D000"/>
<path d="M132.725 36.31C134.805 37.57 136.575 40.27 138.035 44.36C139.505 48.49 139.825 51.69 139.025 54.02C138.245 56.3 136.155 58.06 132.775 59.26C129.255 60.51 126.455 61.44 124.415 61.99C124.045 62.09 123.935 62.06 123.815 61.73L116.065 39.92C115.935 39.56 116.005 39.47 116.355 39.31C118.285 38.45 121.035 37.41 124.565 36.15C127.935 34.95 130.675 35 132.725 36.3V36.31ZM119.825 40.87L126.135 58.61L131.825 56.59C134.115 55.78 135.495 54.5 135.945 52.82C136.415 51.09 136.085 48.63 134.955 45.47C133.845 42.34 132.525 40.26 131.005 39.24C129.485 38.22 127.525 38.14 125.085 39L119.815 40.88L119.825 40.87Z" fill="#00D000"/>
<path d="M165.805 26.61C166.125 26.56 166.305 26.69 166.355 27.01L168.225 38.53C169.025 43.48 169.065 46.33 167.895 48.46C166.715 50.59 164.655 51.48 160.775 52.11C157.655 52.62 155.685 52.48 154.005 51.72C153.165 51.34 152.485 50.7 151.915 49.79C150.845 47.99 150.095 45.58 149.455 41.58L147.585 30.06C147.535 29.74 147.665 29.56 147.985 29.51L150.225 29.15C150.545 29.1 150.725 29.23 150.775 29.55L152.645 41.07C153.055 43.63 153.555 45.49 154.115 46.73C155.255 49.17 156.955 49.86 160.325 49.32C162.815 48.92 164.365 48.05 164.985 46.69C165.635 45.32 165.645 42.76 165.045 39.07L163.175 27.55C163.125 27.23 163.255 27.05 163.575 27L165.815 26.64L165.805 26.61Z" fill="#00D000"/>
<path d="M195.905 25.95C196.255 25.99 196.415 26.18 196.405 26.5L196.385 28C196.385 28.32 196.215 28.48 195.895 28.47L189.915 28.37C187.205 28.33 185.435 28.94 184.615 30.17C183.795 31.4 183.335 33.92 183.275 37.69C183.215 41.43 183.585 43.96 184.365 45.22C185.145 46.48 186.895 47.15 189.605 47.19L195.575 47.29C195.895 47.29 196.055 47.46 196.045 47.78L196.025 49.28C196.025 49.6 195.855 49.79 195.505 49.85C194.125 50.02 192.145 50.08 189.555 50.04C185.565 49.98 183.305 49.3 181.835 47.33C180.365 45.36 179.965 42.54 180.045 37.65C180.125 32.76 180.615 29.96 182.155 28.03C183.685 26.04 185.995 25.47 189.965 25.54C192.425 25.58 194.405 25.71 195.905 25.96V25.95Z" fill="#00D000"/>
<path d="M224.895 29.33C225.215 29.38 225.345 29.56 225.295 29.88L225.005 31.74C224.955 32.06 224.775 32.19 224.455 32.14L217.285 31.01L214.025 51.63C213.975 51.95 213.795 52.08 213.475 52.03L211.235 51.68C210.915 51.63 210.785 51.45 210.835 51.13L214.095 30.51L206.925 29.38C206.605 29.33 206.475 29.15 206.525 28.83L206.815 26.97C206.865 26.65 207.045 26.52 207.365 26.57L224.885 29.34L224.895 29.33Z" fill="#00D000"/>
<path d="M249.745 36.77C250.005 36.89 250.125 37.06 250.045 37.3L249.595 38.7C249.495 39 249.325 39.12 249.055 39.03L242.205 36.84C239.555 35.99 237.925 36.48 237.355 38.28L237.185 38.8C236.685 40.38 236.915 41.33 238.475 42.63L244.235 47.49C246.535 49.43 246.875 51.32 246.045 53.9L245.735 54.87C245.165 56.67 244.105 57.77 242.915 58.23C242.335 58.48 241.655 58.6 240.855 58.58C239.265 58.51 237.915 58.21 236.005 57.6C233.445 56.78 231.035 55.84 228.715 54.8C228.495 54.66 228.415 54.47 228.505 54.2L228.945 52.83C229.035 52.56 229.235 52.45 229.505 52.54L237.845 55.2C240.555 56.07 242.045 55.7 242.655 53.78L242.835 53.2C243.365 51.53 243.135 50.48 241.575 49.17L235.295 43.94C233.375 42.39 233.255 40.44 234.085 37.85L234.315 37.12C234.885 35.32 235.945 34.22 237.065 33.77C237.645 33.52 238.345 33.44 239.115 33.45C240.725 33.46 242.035 33.78 243.975 34.4C245.465 34.88 247.365 35.65 249.735 36.74L249.745 36.77Z" fill="#00D000"/>
<path d="M202.285 345.87C120.775 354.26 49.035 283.86 57.375 202.45C65.345 113.49 157.835 63.23 233.295 95.23C236.245 87.75 239.145 80.63 241.835 74.23C207.425 61.12 167.835 60.62 130.055 77.37C59.865 108.15 25.295 191.86 54.635 262.75C86.395 343.17 186.795 376.05 259.095 328.93L258.395 327.8C241.235 337.88 221.925 344.1 202.285 345.87ZM338.555 211.89C337.955 174.16 323.745 140.79 301.305 115.41C297.255 123.69 293.145 132.53 289.125 141.76C301.455 160.56 308.635 182.65 309.295 205.25C309.625 216.03 308.625 227.36 305.405 237.46C300.745 252.7 290.945 267.65 277.495 275.53C271.955 278.67 266.215 280.7 260.185 279.67C259.815 279.58 259.455 279.48 259.095 279.36C248.145 275.83 245.775 260.64 244.955 248.99C244.585 239.44 245.375 229.95 246.875 220.52C254.125 188.18 266.255 156.04 278.795 128.15C282.595 119.7 286.435 111.65 290.195 104.09C308.475 67.33 324.755 42.45 324.755 42.45H273.495C271.715 44.92 269.925 47.87 268.105 51.39C267.435 52.57 262.235 63.96 255.475 80.2C252.735 86.77 249.745 94.11 246.685 101.9C242.275 113.12 237.745 125.23 233.665 137.17C227.365 128.9 216.445 121.95 200.205 121.28C169.725 120.62 121.705 161.36 114.075 222.97C106.135 285.24 152.175 299.48 176.685 279.95C187.465 271.27 199.725 256.44 208.355 242.92C208.625 251.78 209.715 260.62 211.875 269.32C213.995 278.11 217.715 286.33 222.835 293.26C232.635 306.55 247.575 315.04 266.185 313.46C288.905 311.52 308.565 295.6 320.395 277.62C333.335 258.2 339.105 234.84 338.565 211.9L338.555 211.89ZM193.575 226.61C169.075 264.04 154.165 227.94 175.685 184.22C206.485 122.28 224.705 149.77 227.035 156.72C227.035 156.72 210.475 200.78 193.575 226.61Z" fill="#00006C"/>
<path d="M366.325 0.869995H324.745V42.45H366.325V0.869995Z" fill="#00D000"/>
</g>
<defs>
<clipPath id="clip0_54_103">
<rect width="365.65" height="397.26" fill="white" transform="translate(0.674988 0.869995)"/>
</clipPath>
</defs>
</svg>
