<svg width="1126" height="403" viewBox="0 0 1126 403" fill="none" xmlns="http://www.w3.org/2000/svg">
<g clip-path="url(#clip0_54_93)">
<path d="M478.401 282.972H504.33V314.145H400.627V282.972H374.699V189.466H400.627V158.293H504.33V189.466H530.259V220.638H504.33V251.811H426.556V282.984H478.413L478.401 282.972ZM452.473 220.638H478.401V189.466H426.544V220.638H452.473Z" fill="#00006C"/>
<path d="M633.392 314.145H607.464V282.972H581.535V251.799H555.607V158.293H607.464V251.799H659.321V158.293H711.178V251.799H685.249V282.972H659.321V314.145H633.392Z" fill="#00006C"/>
<path d="M763.024 132.33H788.952V158.305H737.095V132.33H763.024ZM763.024 314.145H737.095V184.28H788.952V314.145H763.024Z" fill="#00006C"/>
<path d="M944.512 314.145H840.809V282.972H814.881V251.799H840.809V220.627H918.583V189.454H840.809V158.282H944.512V189.454H970.44V314.121H944.512V314.145ZM892.655 282.972H918.583V251.799H866.726V282.972H892.655Z" fill="#00006C"/>
<path d="M1082.79 314.145H996.369V282.972H1082.79V251.799H1017.97V220.627H996.357V189.454H1017.97V158.282H1104.39V189.454H1039.58V220.627H1104.39V251.799H1126V282.972H1104.39V314.145H1082.79Z" fill="#00006C"/>
<path d="M181.848 397.477C88.1153 407.139 5.60588 326.028 15.2043 232.242C24.3733 129.748 130.734 71.8447 217.526 108.715C220.915 100.099 224.258 91.89 227.345 84.5184C187.767 69.4146 142.236 68.8332 98.7931 88.1344C18.0595 123.586 -21.7038 220.045 12.0474 301.715C48.5725 394.373 164.032 432.254 247.192 377.967L246.391 376.664C226.66 388.28 204.457 395.442 181.86 397.477H181.848ZM338.568 243.125C337.884 199.651 321.542 161.212 295.718 131.969C291.064 141.515 286.328 151.689 281.709 162.328C295.892 183.989 304.156 209.441 304.91 235.475C305.281 247.904 304.144 260.938 300.442 272.577C295.079 290.134 283.81 307.366 268.338 316.447C261.967 320.063 255.374 322.4 248.434 321.214C248.004 321.109 247.598 320.993 247.18 320.854C234.587 316.784 231.86 299.285 230.92 285.856C230.49 274.856 231.395 263.927 233.125 253.055C241.47 215.801 255.409 178.757 269.836 146.631C274.2 136.899 278.622 127.621 282.939 118.912C303.958 76.5537 322.679 47.8926 322.679 47.8926H263.719C261.665 50.7413 259.622 54.1364 257.521 58.1943C256.755 59.5547 250.766 72.6818 242.99 91.3901C239.833 98.9594 236.398 107.424 232.881 116.4C227.809 129.318 222.598 143.271 217.909 157.037C210.667 147.515 198.109 139.504 179.434 138.725C144.383 137.969 89.1483 184.908 80.3855 255.892C71.2513 327.632 124.211 344.038 152.391 321.54C164.798 311.529 178.888 294.46 188.812 278.879C189.125 289.088 190.367 299.273 192.851 309.296C195.288 319.423 199.571 328.9 205.455 336.876C216.725 352.189 233.914 361.967 255.305 360.142C281.43 357.91 304.04 339.562 317.642 318.854C332.533 296.471 339.16 269.566 338.545 243.137L338.568 243.125ZM171.832 260.078C143.652 303.203 126.497 261.601 151.254 211.232C186.676 139.876 207.637 171.537 210.307 179.548C210.307 179.548 191.261 230.312 171.832 260.066V260.078Z" fill="#00006C"/>
<path d="M370.509 0H322.691V47.9042H370.509V0Z" fill="#00C800"/>
</g>
<defs>
<clipPath id="clip0_54_93">
<rect width="1126" height="403" fill="white"/>
</clipPath>
</defs>
</svg>
